<svg width="474" height="84" viewBox="0 0 474 84" fill="none" xmlns="http://www.w3.org/2000/svg">
<path d="M49.8047 0H12.8168V16.2323H49.8047V0Z" fill="url(#paint0_linear_414_22232)"/>
<rect width="16.2072" height="16.2072" transform="matrix(-1 0 0 1 65.6641 0.0117188)" fill="#ED1B36"/>
<path d="M24.7283 82.7059H40.666V17.1804C40.666 16.5727 40.4275 15.9894 40.0018 15.5558L25.6002 0.88803C25.0425 0.319998 24.2799 0 23.4838 0H9.15527e-05V16.2323H22.8732C23.8978 16.2323 24.7283 17.0629 24.7283 18.0874V36.8938V82.7059Z" fill="#1B1B1B"/>
<path d="M77.5768 82.8959H62L90.3608 2.10505H108.376L136.777 82.8959H121.2L99.6833 18.6735H99.0539L77.5768 82.8959ZM78.0882 51.2186H120.57V62.9743H78.0882V51.2186Z" fill="#1B1B1B"/>
<path d="M149.603 82.8959V2.10505H179.812C186.001 2.10505 191.193 3.18332 195.389 5.33984C199.611 7.49637 202.797 10.5208 204.948 14.413C207.124 18.279 208.212 22.7893 208.212 27.9439C208.212 33.1249 207.111 37.622 204.908 41.4354C202.732 45.2225 199.519 48.1548 195.271 50.2324C191.023 52.2838 185.804 53.3094 179.616 53.3094H158.099V41.1592H177.649C181.268 41.1592 184.231 40.6595 186.539 39.6602C188.846 38.6345 190.551 37.1486 191.652 35.2025C192.78 33.2301 193.344 30.8105 193.344 27.9439C193.344 25.0773 192.78 22.6315 191.652 20.6065C190.525 18.5551 188.807 17.0035 186.499 15.9515C184.192 14.8733 181.215 14.3341 177.57 14.3341H164.196V82.8959H149.603ZM191.219 46.2876L211.163 82.8959H194.878L175.289 46.2876H191.219Z" fill="#1B1B1B"/>
<path d="M223.861 2.10505H241.719L265.635 60.6469H266.579L290.495 2.10505H308.353V82.8959H294.35V27.3916H293.602L271.339 82.6592H260.875L238.612 27.2733H237.864V82.8959H223.861V2.10505Z" fill="#1B1B1B"/>
<path d="M336.805 82.8959H321.228L349.589 2.10505H367.605L396.005 82.8959H380.428L358.912 18.6735H358.282L336.805 82.8959ZM337.317 51.2186H379.799V62.9743H337.317V51.2186Z" fill="#1B1B1B"/>
<path d="M474 29.3641H459.289C458.869 26.9446 458.095 24.8012 456.968 22.9339C455.84 21.0404 454.437 19.4362 452.759 18.1212C451.081 16.8063 449.166 15.82 447.016 15.1626C444.892 14.4788 442.597 14.1369 440.132 14.1369C435.753 14.1369 431.872 15.2415 428.489 17.4506C425.106 19.6334 422.458 22.8419 420.543 27.0761C418.629 31.2839 417.672 36.4254 417.672 42.5005C417.672 48.6808 418.629 53.888 420.543 58.1222C422.484 62.33 425.132 65.5122 428.489 67.6687C431.872 69.799 435.74 70.8641 440.093 70.8641C442.505 70.8641 444.761 70.5485 446.859 69.9173C448.983 69.2598 450.884 68.2999 452.562 67.0376C454.267 65.7752 455.696 64.2236 456.85 62.3826C458.03 60.5417 458.843 58.4378 459.289 56.0708L474 56.1497C473.449 59.9894 472.256 63.5924 470.421 66.9587C468.611 70.325 466.238 73.2968 463.301 75.8741C460.364 78.4251 456.928 80.4238 452.995 81.8703C449.061 83.2904 444.695 84.0005 439.896 84.0005C432.816 84.0005 426.496 82.3568 420.937 79.0694C415.377 75.782 410.998 71.035 407.799 64.8284C404.599 58.6218 403 51.1792 403 42.5005C403 33.7955 404.612 26.3528 407.838 20.1725C411.063 13.966 415.456 9.21896 421.015 5.93157C426.575 2.64418 432.868 1.00049 439.896 1.00049C444.38 1.00049 448.55 1.63167 452.405 2.89402C456.26 4.15638 459.695 6.01047 462.711 8.45629C465.727 10.8758 468.205 13.8476 470.145 17.3717C472.112 20.8695 473.397 24.8669 474 29.3641Z" fill="#1B1B1B"/>
<defs>
<linearGradient id="paint0_linear_414_22232" x1="41.7155" y1="7.88364" x2="12.7021" y2="7.95449" gradientUnits="userSpaceOnUse">
<stop stop-color="#ED1B36" stop-opacity="0.7"/>
<stop offset="1" stop-color="#ED1B36" stop-opacity="0"/>
</linearGradient>
</defs>
</svg>
